# Blender 4.2.1 LTS
# www.blender.org
mtllib maintshedtest.mtl
o mesh9
v -2.359636 1.849363 0.583818
v -2.359636 1.318916 -0.795197
v -2.359636 1.318916 1.962833
v -2.359636 1.430445 -0.795197
v -2.359636 1.430445 1.962833
v -2.359636 1.960892 0.583818
v -2.178125 1.430445 -0.505245
v 2.178125 1.430445 -0.505245
v 2.178125 -0.000000 -0.505245
v -2.178125 -0.000000 -0.505245
v 2.178125 -0.000000 -0.505245
v -2.178125 -0.000000 -0.505245
v 2.178125 0.000000 1.672881
v -2.178125 0.000000 1.672881
v -2.359636 1.430445 -0.795197
v 2.359636 1.430445 -0.795197
v 2.359636 1.960892 0.583818
v -2.359636 1.960892 0.583818
v 2.359636 1.430445 1.962833
v 2.359636 1.960892 0.583818
v -2.359636 1.430445 1.962833
v -2.359636 1.960892 0.583818
v 2.359636 1.318916 1.962833
v -2.359636 1.318916 1.962833
v 2.359636 1.430445 1.962833
v -2.359636 1.430445 1.962833
v -2.178125 1.430445 -0.505245
v -2.178125 -0.000000 -0.505245
v -2.178125 0.000000 1.672881
v -2.178125 1.849363 0.583818
v -2.178125 1.430445 1.672880
v 2.178125 1.430445 -0.505245
v 2.178125 -0.000000 -0.505245
v 2.178125 0.000000 1.672881
v 2.178125 1.849363 0.583818
v 2.178125 1.430445 1.672880
v 2.178125 0.000000 1.672881
v -2.178125 0.000000 1.672881
v -2.178125 1.430445 1.672880
v 2.178125 1.430445 1.672880
v -2.178125 1.430445 -0.505245
v 2.178125 1.430445 -0.505245
v -2.178125 1.849363 0.583818
v 2.178125 1.849363 0.583818
v -2.359636 1.849363 0.583818
v -2.359636 1.318916 -0.795197
v 2.359636 1.318916 -0.795197
v 2.359636 1.849363 0.583818
v -2.178125 1.849363 0.583818
v -2.178125 1.430445 1.672880
v 2.178125 1.849363 0.583818
v 2.178125 1.430445 1.672880
v -2.359636 1.849363 0.583818
v 2.359636 1.849363 0.583818
v 2.359636 1.318916 1.962833
v -2.359636 1.318916 1.962833
v -2.359636 1.318916 -0.795197
v 2.359636 1.318916 -0.795197
v -2.359636 1.430445 -0.795197
v 2.359636 1.430445 -0.795197
v 2.359636 1.318916 -0.795197
v 2.359636 1.849363 0.583818
v 2.359636 1.318916 1.962833
v 2.359636 1.430445 -0.795197
v 2.359636 1.430445 1.962833
v 2.359636 1.960892 0.583818
vn -1.0000 -0.0000 -0.0000
vn -0.0000 -0.0000 -1.0000
vn -0.0000 -1.0000 -0.0000
vn -0.0000 0.9333 -0.3590
vn -0.0000 0.9333 0.3590
vn -0.0000 -0.0000 1.0000
vn 1.0000 -0.0000 -0.0000
vn -0.0000 -0.9333 0.3590
vn -0.0000 -0.9333 -0.3590
s 0
usemtl 0.615686_0.811765_0.929412_0.000000_0.000000
f 5//1 6//1 1//1
f 1//1 6//1 4//1
f 4//1 2//1 1//1
f 1//1 3//1 5//1
f 7//2 8//2 9//2
f 9//2 10//2 7//2
f 12//3 11//3 13//3
f 13//3 14//3 12//3
f 16//4 15//4 18//4
f 18//4 17//4 16//4
f 20//5 22//5 21//5
f 21//5 19//5 20//5
f 25//6 26//6 24//6
f 24//6 23//6 25//6
f 29//1 30//1 27//1
f 29//1 31//1 30//1
f 27//1 28//1 29//1
f 34//7 33//7 32//7
f 32//7 35//7 34//7
f 35//7 36//7 34//7
f 38//6 37//6 40//6
f 40//6 39//6 38//6
f 45//8 46//8 41//8
f 46//8 47//8 42//8
f 42//8 41//8 46//8
f 48//8 44//8 42//8
f 42//8 47//8 48//8
f 41//8 43//8 45//8
f 55//9 56//9 50//9
f 53//9 49//9 50//9
f 54//9 55//9 52//9
f 50//9 56//9 53//9
f 50//9 52//9 55//9
f 52//9 51//9 54//9
f 58//2 57//2 59//2
f 59//2 60//2 58//2
f 62//7 61//7 64//7
f 65//7 63//7 62//7
f 62//7 66//7 65//7
f 64//7 66//7 62//7
